# xmcd
#
# Track frame offsets:
#	150
#	16751
#	32034
#	47853
#	63277
#	76655
#	92060
#	121524
#	134639
#	150612
#
# Disc length: 2422 seconds
# Revision: 0
# Processed by: cddbd v1.5.2PL0 Copyright (c) Steve Scherf et al.
# Submitted via: dBpowerAMP V12.0
#
DISCID=7009740a
DTITLE=Satan And Adam - Back In The Game
DYEAR=2011
DGENRE=Blues
TTITLE0=Big Boss Mann
TTITLE1=Broke And Hungry
TTITLE2=Thunky Fing Rides Again
TTITLE3=Fever
TTITLE4=Tell The World
TTITLE5=Ain't Nobody
TTITLE6=Lotto 54
TTITLE7=Hey, Hey, Hey
TTITLE8=Take You Downtown
TTITLE9=Listen To The Music Aka Goin To Main Street
EXTD=
EXTT0=
EXTT1=
EXTT2=
EXTT3=
EXTT4=
EXTT5=
EXTT6=
EXTT7=
EXTT8=
EXTT9=
PLAYORDER=
